<?xml version="1.0" standalone="no"?>
<!DOCTYPE svg PUBLIC "-//W3C//DTD SVG 20010904//EN"
 "http://www.w3.org/TR/2001/REC-SVG-20010904/DTD/svg10.dtd">
<svg version="1.0" xmlns="http://www.w3.org/2000/svg"
 width="427.000000pt" height="427.000000pt" viewBox="0 0 427.000000 427.000000"
 preserveAspectRatio="xMidYMid meet">
<metadata>
Created by potrace 1.14, written by Peter Selinger 2001-2017
</metadata>
<g transform="translate(0.000000,427.000000) scale(0.100000,-0.100000)"
fill="#000000" stroke="none">
<path d="M0 4006 l0 -265 53 -5 c98 -10 232 -19 257 -18 14 1 41 -1 60 -4 32
-5 33 -7 16 -20 -10 -7 -22 -12 -26 -9 -27 17 -223 26 -253 12 -12 -6 -27 -3
-44 8 -21 14 -27 15 -34 4 -5 -8 -9 -18 -9 -22 0 -5 -4 -5 -10 -2 -7 4 -10
-103 -10 -314 l0 -320 23 -4 22 -4 -22 -2 -23 -1 0 -261 c0 -256 0 -261 20
-256 11 3 20 1 20 -4 0 -5 -9 -9 -20 -9 -18 0 -20 -7 -20 -70 0 -68 1 -70 24
-70 14 0 28 -5 32 -11 3 -6 -1 -10 -12 -9 -45 5 -44 17 -44 -334 l0 -334 90
-7 c57 -5 90 -11 87 -18 -3 -10 -125 -11 -160 -1 -16 5 -17 -39 -17 -825 l0
-831 140 0 c139 0 140 0 146 24 5 21 11 24 64 25 32 0 62 -3 65 -9 3 -6 23 -8
43 -5 20 3 71 -2 112 -11 64 -15 142 -18 527 -21 l452 -4 -11 38 c-5 21 -25
86 -43 146 -19 59 -37 133 -40 165 -4 31 -2 179 4 327 10 255 12 275 39 360
33 102 47 134 79 187 21 35 22 41 13 144 -9 99 -12 112 -50 175 -39 66 -42 69
-80 69 -22 0 -40 -5 -43 -12 -2 -7 -7 -10 -11 -7 -3 3 -4 14 0 23 4 11 16 16
40 14 18 -1 37 1 40 5 4 4 -5 49 -20 100 -16 50 -30 98 -32 106 -3 8 -13 1
-27 -20 -20 -29 -29 -34 -62 -33 -47 2 -59 17 -110 135 -29 68 -40 111 -47
182 -6 50 -13 117 -17 147 -12 101 17 180 67 180 40 0 58 -17 81 -78 23 -59
27 -113 9 -141 -8 -14 -9 -28 -1 -52 l10 -34 10 25 c10 23 22 135 23 203 0 23
4 28 21 25 25 -4 27 -7 68 -113 29 -74 80 -155 81 -128 0 6 -5 15 -11 19 -28
17 -59 110 -59 174 1 70 10 91 57 122 47 31 97 20 57 -13 -8 -7 -22 -25 -30
-40 -12 -25 -12 -29 2 -37 11 -6 13 -11 5 -16 -18 -11 -13 -26 9 -26 28 0 70
21 70 35 0 7 7 19 16 26 17 14 21 11 49 -36 16 -27 93 -11 107 21 14 29 28 31
35 4 5 -20 27 -25 56 -14 9 3 13 13 10 24 -4 13 1 19 19 22 14 2 23 9 22 20
-1 14 2 15 17 8 31 -17 41 -49 37 -119 -5 -81 -38 -152 -90 -194 -21 -17 -37
-32 -35 -34 2 -1 22 6 45 17 69 34 118 127 129 247 5 49 11 67 27 78 23 16 64
19 84 6 12 -7 43 -119 45 -163 1 -10 6 -17 12 -15 6 1 28 -17 49 -41 54 -60
96 -88 106 -73 4 8 -10 30 -39 59 -48 48 -81 106 -81 139 1 32 45 54 115 57
74 3 83 8 64 33 -11 15 -10 15 9 -1 20 -18 28 -18 85 -8 35 7 63 8 65 3 2 -5
21 -7 42 -4 51 7 52 -8 3 -42 -35 -23 -46 -25 -158 -26 -89 0 -112 -3 -90 -10
111 -34 317 8 300 62 -5 14 0 22 20 29 14 5 23 14 20 20 -3 5 -8 23 -10 41 -4
29 -3 30 18 16 26 -17 35 -45 36 -112 1 -49 -8 -99 -25 -140 -7 -17 -5 -18 8
-8 20 17 36 74 44 161 7 76 28 127 30 75 2 -44 7 -56 37 -86 15 -16 27 -41 28
-55 0 -15 2 -38 4 -52 1 -14 6 -68 10 -122 7 -88 6 -100 -14 -138 -28 -53 -35
-104 -23 -158 6 -26 6 -53 1 -70 -5 -15 -20 -61 -34 -102 -79 -243 -131 -339
-175 -325 -11 4 -21 -7 -34 -35 -17 -39 -76 -105 -166 -185 -25 -22 -50 -50
-57 -62 -11 -20 -10 -21 12 -17 26 5 35 -10 13 -20 -10 -5 -10 -7 0 -12 18 -9
15 -34 -5 -34 -15 0 -16 -2 -3 -9 8 -6 17 -8 20 -6 3 2 32 -3 64 -10 51 -12
61 -12 82 2 13 8 31 13 39 9 8 -3 15 -2 15 2 0 10 65 35 102 40 23 2 28 -1 34
-25 3 -15 7 -32 8 -38 2 -5 -3 -27 -10 -49 -8 -21 -14 -54 -14 -73 0 -21 -4
-32 -10 -28 -6 4 -10 3 -9 -2 5 -26 -2 -73 -10 -68 -5 3 -9 -7 -9 -23 1 -15
-4 -39 -11 -52 -12 -24 -11 -24 4 -5 9 11 35 58 59 105 47 95 66 192 45 231
-10 19 -8 25 11 39 19 14 21 20 11 38 -22 42 -9 81 17 49 18 -21 52 -177 52
-237 0 -57 -22 -176 -46 -245 -12 -36 -12 -38 2 -20 8 11 17 31 20 45 11 52
14 56 24 40 24 -38 -6 -348 -56 -578 -13 -63 -24 -120 -24 -128 0 -12 77 -14
514 -14 306 0 517 4 521 9 3 5 22 15 42 22 38 12 93 64 93 86 0 7 8 13 18 13
14 0 14 2 3 9 -12 8 -12 12 -2 25 11 13 11 16 -3 16 -21 0 -21 26 0 34 8 3 13
10 9 15 -3 5 -1 12 4 15 12 8 58 -81 86 -168 l23 -71 61 -3 61 -3 0 435 0 434
-65 4 c-36 1 -70 1 -75 0 -6 -2 -10 -22 -10 -44 0 -51 -24 -47 -28 5 -2 20 -9
37 -15 37 -7 0 -6 4 3 10 8 5 54 10 102 10 l88 0 0 591 0 591 -33 -7 c-17 -4
-37 -13 -43 -21 -6 -8 -18 -12 -27 -9 -9 4 -21 -3 -31 -17 -21 -30 -20 -37 4
-31 23 6 27 -9 6 -26 -10 -9 -15 -8 -20 4 -3 8 -12 15 -21 15 -19 0 -19 2 -1
45 13 31 13 35 0 35 -7 0 -14 7 -14 16 0 13 11 15 73 11 39 -2 80 -2 90 1 16
4 17 65 17 1093 l0 1089 -25 0 c-16 0 -25 -6 -25 -15 0 -8 -4 -15 -10 -15 -5
0 -10 7 -10 15 0 13 -48 15 -375 15 -377 0 -381 0 -376 -32 3 -18 -21 -6 -26
12 -5 20 -14 20 -847 20 -664 -1 -837 -3 -824 -13 9 -7 25 -18 35 -25 15 -10
9 -11 -37 -5 -30 4 -66 7 -80 8 -14 0 -34 6 -45 13 -17 10 -13 12 32 10 29 -1
56 2 60 6 4 4 -48 6 -116 5 -107 -2 -125 -5 -134 -21 -16 -24 -37 -23 -37 2 0
18 -7 20 -67 20 -55 0 -71 -4 -90 -22 l-23 -21 0 21 0 21 -450 1 -450 0 0 -24
c0 -30 -9 -56 -20 -56 -5 0 -3 13 3 30 14 37 9 41 -49 48 -38 4 -50 1 -61 -13
-12 -17 -13 -17 -13 -2 0 10 -8 17 -20 17 -11 0 -20 -2 -20 -4 0 -11 47 -55
53 -50 10 11 17 -34 13 -81 -5 -46 -19 -75 -32 -63 -3 3 0 15 7 27 12 17 10
24 -9 50 -12 17 -22 35 -22 40 0 5 -11 18 -25 29 -14 11 -25 24 -25 30 0 15
-26 22 -81 22 l-49 0 0 -264z m1206 186 c-11 -10 -15 4 -8 28 l7 25 3 -23 c2
-13 1 -26 -2 -30z m1897 20 c-3 -13 -14 -18 -38 -18 -34 1 -39 16 -5 16 10 0
22 5 25 10 10 17 23 11 18 -8z m1118 5 c-1 -4 -1 -16 -1 -27 0 -11 -4 -20 -10
-20 -5 0 -10 14 -10 31 0 17 5 29 11 27 6 -2 10 -7 10 -11z m-2955 -45 c1 -20
-3 -43 -8 -49 -6 -7 -7 -21 -3 -30 14 -36 6 -295 -9 -311 -14 -13 -18 11 -8
44 7 24 8 44 1 62 -12 31 -9 267 4 305 12 35 20 27 23 -21z m674 38 c22 -7 20
-8 -15 -9 -22 0 -47 4 -55 9 -11 7 -8 9 15 9 17 -1 41 -5 55 -9z m1382 -32
c-6 -6 -15 -7 -22 -3 -8 5 -6 13 7 27 16 18 18 19 21 3 2 -9 -1 -22 -6 -27z
m128 12 c0 -18 -6 -33 -15 -37 -21 -8 -23 -3 -18 35 7 42 33 43 33 2z m-3100
-49 c0 -15 4 -31 9 -36 12 -14 1 -87 -13 -82 -6 2 -11 12 -12 23 0 10 -4 36
-8 57 -8 42 0 81 15 72 5 -4 9 -19 9 -34z m1860 29 c30 -4 48 -8 40 -9 -8 0
-20 -11 -25 -23 -10 -23 -32 -24 -27 -1 4 20 -38 26 -57 9 -31 -28 -70 -15
-57 19 6 16 38 18 126 5z m198 -27 c-10 -2 -26 -2 -35 0 -10 3 -2 5 17 5 19 0
27 -2 18 -5z m-1002 -40 c-11 -11 -17 4 -9 23 7 18 8 18 11 1 2 -10 1 -21 -2
-24z m748 -23 c-22 -45 -44 -65 -44 -40 0 16 49 90 59 90 5 0 -2 -22 -15 -50z
m-39 29 c11 -16 1 -19 -13 -3 -7 8 -8 14 -3 14 5 0 13 -5 16 -11z m-605 -16
c0 -26 -16 -47 -29 -39 -14 9 -14 29 1 44 17 17 28 15 28 -5z m1195 7 c3 -5
-1 -10 -9 -10 -9 0 -16 5 -16 10 0 6 4 10 9 10 6 0 13 -4 16 -10z m92 -16 c-3
-3 -12 -4 -19 -1 -8 3 -5 6 6 6 11 1 17 -2 13 -5z m-1397 -43 c0 -10 -10 -30
-21 -45 -22 -28 -21 -48 1 -21 7 8 19 15 26 15 9 0 14 11 14 30 0 33 11 38 34
14 20 -19 21 -74 2 -74 -7 0 -26 -18 -41 -41 -16 -22 -37 -45 -47 -50 -10 -5
-18 -15 -18 -21 0 -6 20 8 45 31 48 44 61 51 46 24 -20 -38 -69 -75 -89 -69
-11 4 -24 0 -32 -9 -13 -16 -40 -21 -40 -7 0 4 32 38 71 75 39 37 69 71 65 74
-4 4 -26 -12 -49 -35 -47 -46 -76 -57 -57 -21 7 11 9 27 6 34 -3 8 2 21 10 30
8 8 16 25 18 38 3 33 14 47 37 47 12 0 19 -7 19 -19z m1684 1 c45 -5 71 -12
74 -21 4 -11 -3 -12 -29 -7 -53 11 -101 7 -119 -9 -14 -13 -17 -42 -19 -196
-1 -99 -6 -191 -11 -204 -11 -28 -30 -42 -30 -21 0 8 -7 21 -15 30 -12 11 -15
32 -12 86 2 38 1 70 -2 70 -4 0 -6 62 -6 137 l0 137 25 7 c14 3 36 4 50 2 14
-2 56 -7 94 -11z m-202 -24 c-15 -15 -24 -6 -16 16 5 12 10 14 17 7 8 -8 8
-14 -1 -23z m636 -48 c-8 -13 -15 -16 -19 -8 -10 15 -2 28 17 28 12 0 12 -4 2
-20z m308 -15 c-10 -8 -22 -13 -25 -10 -4 2 -5 -15 -4 -36 1 -22 -2 -51 -7
-65 -6 -16 -6 -24 1 -24 6 0 8 -8 5 -17 -3 -10 -8 -57 -10 -105 -3 -49 -7 -92
-11 -97 -3 -5 -2 -12 2 -14 5 -3 7 -26 5 -51 -3 -38 -8 -46 -23 -46 -27 0 -33
22 -16 62 9 21 11 41 7 49 -5 7 -7 75 -6 151 2 97 0 138 -8 138 -6 0 -4 5 4
11 11 8 12 12 3 16 -14 5 -18 35 -6 46 3 4 29 7 57 7 47 -1 49 -2 32 -15z
m179 -5 l20 -9 -20 0 c-11 0 -27 4 -35 9 -13 9 -13 10 0 9 8 0 24 -4 35 -9z
m-1529 -27 c-10 -10 -19 5 -10 18 6 11 8 11 12 0 2 -7 1 -15 -2 -18z m1704 10
l25 -13 -26 0 c-50 0 -118 13 -113 21 8 13 84 8 114 -8z m-3068 -35 c-8 -8 -9
-4 -5 13 4 13 8 18 11 10 2 -7 -1 -18 -6 -23z m-746 -35 c-3 -7 -11 -13 -17
-13 -7 0 -9 3 -6 6 3 4 1 16 -4 27 -8 15 -8 22 2 28 16 9 33 -25 25 -48z
m3879 47 c13 -6 15 -9 5 -9 -8 0 -22 4 -30 9 -18 12 -2 12 25 0z m-4007 -12
c-2 -6 -10 -14 -16 -16 -7 -2 -10 2 -6 12 7 18 28 22 22 4z m-58 -12 c0 -3 -4
-8 -10 -11 -5 -3 -10 -1 -10 4 0 6 5 11 10 11 6 0 10 -2 10 -4z m358 -197
c-12 -7 -24 -7 -35 0 -15 9 -12 10 17 10 29 0 32 -1 18 -10z m-218 -19 c0 -13
-28 -25 -38 -16 -3 4 0 11 8 16 20 13 30 12 30 0z m573 -16 c6 -7 -57 -54 -72
-54 -5 0 -12 -16 -15 -35 -9 -49 -24 -52 -24 -5 0 21 -5 47 -11 58 -7 13 -7
22 1 30 12 12 110 17 121 6z m230 -23 c17 -6 17 -8 3 -20 -11 -9 -16 -10 -16
-2 0 19 -27 12 -33 -9 -7 -25 -27 -26 -34 -1 -3 12 -19 23 -41 29 -34 9 -31
10 33 10 39 0 78 -3 88 -7z m112 -1 c3 -5 15 -10 26 -10 10 0 19 -4 19 -9 0
-6 -8 -9 -17 -9 -10 0 -25 -1 -33 -3 -9 -3 -16 4 -18 19 -3 22 12 30 23 12z
m-85 -46 c0 -12 -37 -53 -43 -48 -9 10 15 54 30 54 7 0 13 -3 13 -6z m2329
-56 c-12 -22 -50 -13 -42 10 3 10 13 25 22 35 15 18 16 18 22 -5 3 -12 2 -30
-2 -40z m-2639 -28 c0 -8 -1 -45 -2 -82 -1 -41 -6 -68 -12 -68 -8 0 -10 39 -7
117 3 95 5 111 13 83 5 -19 9 -42 8 -50z m-550 60 c0 -5 -4 -10 -10 -10 -5 0
-10 5 -10 10 0 6 5 10 10 10 6 0 10 -4 10 -10z m50 -15 c0 -8 -7 -15 -15 -15
-26 0 -18 20 13 29 1 1 2 -6 2 -14z m530 -5 c0 -5 -5 -10 -11 -10 -5 0 -7 5
-4 10 3 6 8 10 11 10 2 0 4 -4 4 -10z m-530 -60 c0 -5 -4 -10 -10 -10 -5 0
-10 5 -10 10 0 6 5 10 10 10 6 0 10 -4 10 -10z m800 -50 c-12 -12 -24 -19 -26
-17 -3 3 5 14 17 26 29 27 37 19 9 -9z m71 -8 c-11 -20 -51 -58 -51 -48 0 4
10 20 22 36 24 32 45 41 29 12z m-524 -63 c-7 -11 -17 -19 -24 -19 -7 0 -13 8
-13 19 0 13 7 19 24 19 22 0 23 -3 13 -19z m2768 6 c0 -5 -17 -11 -37 -13
l-37 -3 -3 -87 c-3 -57 0 -94 9 -108 9 -17 9 -30 -1 -65 -7 -24 -12 -75 -11
-112 1 -57 -1 -67 -14 -65 -11 2 -16 16 -18 43 0 22 -2 45 -3 50 -1 6 -1 12 0
15 6 11 9 177 4 208 -3 18 -9 30 -15 27 -5 -4 -9 8 -9 25 0 21 -8 38 -22 50
-13 10 -20 21 -16 25 22 22 173 31 173 10z m175 -7 c0 -10 -97 -4 -108 6 -3 3
20 5 51 5 32 -1 57 -6 57 -11z m60 3 c0 -5 -6 -14 -14 -20 -11 -9 -16 -9 -21
0 -4 6 -1 15 6 20 18 11 29 11 29 0z m120 -16 l35 -13 -27 -7 c-15 -4 -33 -3
-40 1 -7 5 -23 7 -35 5 -30 -3 -50 9 -32 20 19 12 58 10 99 -6z m-2972 -24
c12 -11 22 -26 22 -33 0 -18 -47 -60 -55 -49 -7 13 4 39 21 45 22 9 17 28 -6
21 -16 -5 -20 -2 -20 14 0 26 8 26 38 2z m3089 3 c-3 -3 -12 -4 -19 -1 -8 3
-5 6 6 6 11 1 17 -2 13 -5z m293 -32 c24 -2 31 -5 21 -11 -7 -5 -41 -7 -76 -5
-56 3 -63 2 -73 -19 -11 -22 -11 -22 -11 4 -1 14 1 28 3 30 4 4 74 5 136 1z
m-1756 -27 c37 -3 96 -17 129 -30 33 -14 68 -25 77 -25 34 0 97 -67 119 -127
24 -66 35 -181 19 -201 -15 -18 -2 -27 17 -12 12 10 15 10 15 -4 0 -9 -4 -16
-9 -16 -16 0 -24 -42 -10 -50 9 -6 8 -12 -5 -26 -10 -9 -16 -24 -13 -34 3 -13
-2 -15 -27 -12 -17 3 -41 11 -53 19 -48 31 -296 -11 -338 -57 -10 -11 -24 -20
-31 -20 -6 0 -26 -17 -44 -37 -17 -21 -40 -48 -51 -59 -10 -12 -19 -28 -19
-36 0 -15 -102 -38 -169 -38 -17 0 -41 -5 -54 -11 -19 -9 -31 -8 -53 5 -20 10
-24 15 -11 16 25 0 21 14 -8 30 -14 7 -41 31 -61 52 -19 21 -39 36 -45 33 -5
-4 -21 3 -35 14 -28 22 -64 27 -92 12 -25 -12 -103 -21 -96 -10 3 5 -2 9 -10
9 -8 0 -19 -6 -23 -12 -9 -15 -134 -78 -155 -78 -7 0 -21 -11 -30 -24 -16 -22
-16 -24 4 -45 23 -26 21 -31 -18 -34 -27 -2 -29 1 -36 48 -22 147 -27 220 -22
320 7 131 31 194 114 295 73 89 94 106 145 119 24 6 46 14 48 18 8 13 200 4
213 -10 4 -4 14 -2 21 5 9 7 17 8 21 2 4 -5 12 -9 17 -9 30 -1 124 -18 192
-36 43 -11 92 -19 108 -18 98 4 134 -1 163 -26 35 -30 46 -32 33 -7 -6 10 -8
28 -5 39 4 15 0 23 -15 28 -27 8 -53 34 -46 45 3 5 18 7 33 5 15 -2 58 -7 96
-10z m1680 -31 c7 -18 0 -34 -15 -34 -5 0 -9 11 -9 25 0 28 15 34 24 9z
m-3327 -81 c-10 -10 -12 -4 -8 30 4 41 4 42 12 12 6 -20 5 -34 -4 -42z m-614
25 c-7 -12 -151 -9 -159 3 -4 7 20 10 79 7 47 -2 83 -6 80 -10z m3969 -53 c-5
-43 -22 -57 -22 -18 0 22 15 53 25 53 1 0 -1 -16 -3 -35z m-3688 -103 c45 -6
48 -8 32 -21 -14 -12 -22 -12 -37 -3 -25 16 -101 15 -122 -1 -13 -9 -20 -34
-25 -89 -5 -61 -10 -76 -20 -69 -8 5 -15 20 -15 35 -1 14 -6 26 -11 26 -4 0
-6 9 -3 20 3 11 1 20 -5 20 -6 0 -7 8 -4 17 4 9 1 20 -6 25 -10 6 -7 13 11 28
25 21 102 26 205 12z m181 -12 c15 -2 12 -4 -10 -9 -36 -8 -95 -2 -95 9 0 8
50 8 105 0z m198 -19 c11 -11 -63 -9 -93 2 -8 3 -22 8 -30 11 -8 3 14 4 49 2
35 -2 68 -9 74 -15z m3327 -21 c-11 -37 -19 -50 -31 -50 -17 0 -9 33 13 57 27
29 28 29 18 -7z m-3096 -1 c5 -5 -29 -6 -80 -2 -49 3 -93 10 -99 15 -7 7 21 8
80 3 50 -4 94 -11 99 -16z m-762 -206 c-5 -10 -6 -54 -2 -98 8 -86 4 -129 -14
-144 -8 -7 -11 4 -10 40 1 27 -2 52 -7 55 -5 3 -9 45 -9 94 0 76 2 89 18 92
22 5 35 -17 24 -39z m3028 -4 c0 -6 -15 -9 -35 -8 -24 3 -41 -3 -58 -19 -13
-12 -26 -22 -30 -22 -14 0 25 49 41 52 43 8 82 7 82 -3z m150 -17 c0 -10 -41
-35 -47 -28 -9 8 17 36 33 36 8 0 14 -3 14 -8z m222 -28 c-20 -14 -22 -23 -21
-107 1 -120 2 -117 -19 -117 -15 0 -17 10 -17 76 0 41 -3 78 -8 81 -4 3 -5 18
-2 34 5 21 3 29 -7 29 -10 0 -9 3 2 10 8 5 33 10 55 10 39 0 39 0 17 -16z
m121 -1 c-7 -2 -21 -2 -30 0 -10 3 -4 5 12 5 17 0 24 -2 18 -5z m302 -3 c4 -6
-8 -10 -29 -10 -19 0 -38 5 -41 10 -4 6 8 10 29 10 19 0 38 -4 41 -10z m-521
-46 c6 -10 16 -22 21 -27 6 -4 2 -13 -10 -23 -19 -14 -20 -13 -23 13 -2 15 -8
32 -13 38 -5 5 -9 13 -9 18 0 14 23 2 34 -19z m-520 -30 c20 -19 11 -38 -15
-31 -23 6 -38 -6 -79 -63 -18 -25 -30 -37 -26 -27 3 10 6 30 6 44 0 16 13 37
37 59 41 38 54 41 77 18z m-310 -95 c-27 -11 -34 -10 -34 0 0 11 31 20 44 13
5 -3 1 -9 -10 -13z m-1214 -17 c0 -5 -16 -13 -35 -19 -41 -13 -48 1 -7 15 35
13 42 14 42 4z m994 2 c9 -3 16 -10 16 -16 0 -5 -4 -7 -8 -4 -5 3 -29 6 -55 7
-25 2 -44 6 -41 11 6 9 65 11 88 2z m511 -55 c7 -31 25 -40 25 -12 0 17 27 53
40 53 5 0 14 -17 23 -37 10 -28 14 -71 12 -158 -3 -105 -7 -131 -34 -210 -18
-49 -39 -98 -48 -107 -23 -26 -76 -23 -111 7 l-30 25 1 155 c0 142 5 173 22
145 3 -5 17 -10 31 -10 34 0 33 47 -2 75 l-26 21 22 39 c33 60 41 67 56 54 7
-6 16 -24 19 -40z m-465 31 c0 -5 -4 -10 -10 -10 -5 0 -10 5 -10 10 0 6 5 10
10 10 6 0 10 -4 10 -10z m-876 -48 c3 -5 -17 -14 -43 -21 -27 -7 -64 -23 -82
-37 -39 -28 -39 -28 -39 -10 0 37 146 97 164 68z m1976 -10 c0 -5 -6 -17 -14
-28 -14 -18 -15 -18 -22 0 -4 11 -2 21 7 27 18 11 29 11 29 1z m-5 -82 c12 0
15 -5 10 -17 -4 -10 -12 -31 -17 -48 -15 -42 -27 -55 -51 -55 -19 0 -19 1 -3
19 12 14 18 37 18 77 1 48 3 55 13 41 7 -9 20 -17 30 -17z m-3541 -10 c-5 -5
-29 -6 -59 -1 l-50 9 59 1 c38 1 57 -2 50 -9z m43 4 c-3 -3 -12 -4 -19 -1 -8
3 -5 6 6 6 11 1 17 -2 13 -5z m118 -4 c9 -15 -38 -22 -68 -11 -15 6 -27 13
-27 16 0 9 89 5 95 -5z m138 -17 c-7 -2 -19 -2 -25 0 -7 3 -2 5 12 5 14 0 19
-2 13 -5z m60 0 c-7 -2 -19 -2 -25 0 -7 3 -2 5 12 5 14 0 19 -2 13 -5z m103
-3 c13 0 24 -4 24 -10 0 -11 -39 -13 -64 -4 -9 3 -16 11 -16 16 0 6 7 7 16 4
9 -3 27 -6 40 -6z m198 -24 c-17 -8 -40 -25 -51 -39 -22 -28 -43 -20 -43 16 0
32 -25 13 -28 -22 -2 -19 -8 -31 -15 -28 -17 6 -9 60 10 75 10 7 46 12 87 12
68 -1 70 -1 40 -14z m-64 -116 c0 -5 -5 -10 -11 -10 -5 0 -7 5 -4 10 3 6 8 10
11 10 2 0 4 -4 4 -10z m2940 -78 l25 -11 -30 -1 c-98 -5 -220 -2 -213 5 3 3
35 6 72 7 41 1 70 6 77 14 7 8 17 10 27 5 10 -5 28 -14 42 -19z m-351 -21
c-24 -20 -69 -17 -69 5 0 8 15 14 38 16 50 4 57 0 31 -21z m-102 0 c-2 -10 0
-26 5 -35 10 -18 2 -56 -13 -56 -5 0 -9 11 -9 25 0 29 -5 30 -55 9 -20 -8 -39
-13 -42 -11 -8 9 26 64 43 71 9 4 25 4 35 1 9 -3 20 -1 24 5 10 16 18 12 12
-9z m201 12 c-10 -2 -28 -2 -40 0 -13 2 -5 4 17 4 22 1 32 -1 23 -4z m539 -19
c-3 -3 -12 -4 -19 -1 -8 3 -5 6 6 6 11 1 17 -2 13 -5z m53 -39 c0 -8 -7 -15
-15 -15 -16 0 -20 12 -8 23 11 12 23 8 23 -8z m-717 -45 c3 -11 1 -18 -4 -14
-5 3 -9 12 -9 20 0 20 7 17 13 -6z m-3078 -58 c-8 -9 -25 20 -18 31 3 5 10 2
15 -7 6 -10 7 -20 3 -24z m3082 -112 c-3 -21 -17 -40 -17 -22 0 13 11 42 16
42 2 0 3 -9 1 -20z m803 -109 c0 -6 -4 -13 -10 -16 -5 -3 -10 1 -10 9 0 9 5
16 10 16 6 0 10 -4 10 -9z m-3665 -46 c110 -3 214 -2 230 3 17 5 45 5 65 0 19
-5 59 -14 88 -20 28 -5 52 -13 52 -17 0 -17 -15 -20 -30 -6 -14 13 -57 17
-221 20 -112 3 -235 7 -274 9 -75 4 -128 -14 -118 -41 3 -7 0 -13 -6 -13 -6 0
-11 11 -11 25 0 20 -5 25 -26 25 -23 0 -25 2 -14 15 8 10 23 14 39 11 14 -3
116 -8 226 -11z m2884 -27 c1 -5 -5 -8 -13 -8 -9 0 -12 8 -8 27 5 25 6 25 13
8 4 -11 8 -23 8 -27z m782 -31 c-5 -5 -17 -4 -29 4 -19 12 -20 15 -5 43 l15
30 14 -34 c9 -20 11 -37 5 -43z m-3091 23 l25 -7 -29 -12 c-36 -14 -98 -11
-103 6 -7 20 59 28 107 13z m173 -32 c-15 -17 -18 -38 -18 -129 0 -64 4 -110
10 -112 6 -2 2 -13 -8 -25 -15 -16 -16 -24 -7 -41 6 -12 8 -26 5 -31 -3 -5 0
-29 6 -54 10 -40 9 -48 -11 -75 -21 -31 -40 -40 -40 -20 0 5 5 7 10 4 6 -3 10
-1 10 4 0 6 -4 11 -10 11 -13 0 -13 66 0 90 6 12 7 28 1 43 -7 17 -5 33 5 53
8 15 12 35 8 43 -4 9 -8 57 -9 107 -1 93 -13 128 -40 118 -7 -3 -16 0 -20 5
-3 6 -11 9 -16 6 -9 -6 -13 17 -5 26 2 2 36 2 76 1 71 -4 71 -4 53 -24z m267
-28 c0 -5 -4 -10 -10 -10 -5 0 -10 5 -10 10 0 6 5 10 10 10 6 0 10 -4 10 -10z
m-372 -39 c-16 -5 -29 22 -15 31 7 4 15 0 18 -10 4 -9 2 -19 -3 -21z m-808 -6
c-7 -9 -15 -13 -17 -11 -7 7 7 26 19 26 6 0 6 -6 -2 -15z m2875 -16 c287 -15
371 -22 365 -34 -3 -5 -16 -9 -30 -7 -155 16 -196 18 -208 9 -7 -5 -32 -7 -60
-3 -26 4 -72 8 -102 10 -30 2 -57 4 -60 5 -3 2 -42 5 -86 7 -92 4 -97 1 -109
-61 -4 -22 -12 -46 -18 -53 -8 -10 -7 -16 3 -22 8 -5 10 -15 6 -26 -20 -52
-40 113 -21 174 5 14 45 15 320 1z m655 -28 c0 -14 -28 -21 -90 -21 -56 0 -58
-1 -58 -27 0 -16 5 -33 10 -40 6 -8 5 -19 -2 -34 -7 -12 -9 -34 -6 -49 3 -18
0 -33 -9 -40 -8 -7 -15 -19 -15 -27 0 -8 -4 -11 -10 -8 -16 10 -11 52 6 59 15
6 15 9 -4 29 -17 18 -19 26 -10 35 9 9 9 12 0 12 -8 0 -12 13 -11 38 2 21 -1
44 -5 51 -5 8 -3 17 5 22 18 11 199 12 199 0z m95 0 c6 -1 3 -6 -5 -11 -19
-12 -80 -13 -80 -1 0 16 19 18 85 12z m266 -10 c24 -5 37 -10 29 -10 -90 -10
-118 -10 -138 1 -17 9 -25 9 -34 0 -16 -16 -28 -15 -28 2 0 15 73 27 111 19
10 -2 37 -8 60 -12z m-3901 -1 c0 -5 -7 -10 -16 -10 -8 0 -12 5 -9 10 3 6 10
10 16 10 5 0 9 -4 9 -10z m3307 -102 c-3 -8 -6 -5 -6 6 -1 11 2 17 5 13 3 -3
4 -12 1 -19z m-3321 -45 c-10 -10 -19 5 -10 18 6 11 8 11 12 0 2 -7 1 -15 -2
-18z m2604 -58 c0 -22 -2 -24 -14 -13 -10 9 -11 17 -4 26 15 17 18 15 18 -13z
m0 -55 c0 -11 -4 -20 -9 -20 -5 0 -7 9 -4 20 3 11 7 20 9 20 2 0 4 -9 4 -20z
m807 -48 c3 -12 1 -28 -5 -35 -13 -15 -7 -90 7 -95 22 -7 -1 -22 -36 -22 l-35
0 6 40 c3 22 8 59 11 83 3 23 8 53 11 67 6 24 6 25 20 5 8 -11 17 -30 21 -43z
m-3347 -163 c19 -5 82 -9 140 -10 77 0 97 -3 76 -9 -16 -5 -33 -7 -37 -4 -4 2
-120 5 -256 6 -181 1 -218 3 -138 7 61 4 119 12 130 18 11 7 27 10 35 7 8 -4
31 -10 50 -15z m815 -9 c-3 -5 -13 -10 -21 -10 -8 0 -14 5 -14 10 0 6 9 10 21
10 11 0 17 -4 14 -10z m-84 -24 c-19 -7 -64 -11 -100 -9 -76 4 -129 4 -220 -1
-55 -3 -66 -7 -77 -27 l-13 -24 0 25 c-1 14 3 30 7 37 9 15 86 19 282 14 136
-3 151 -5 121 -15z m2549 -55 c0 -5 10 -9 23 -9 12 0 54 -5 92 -11 39 -6 105
-10 148 -11 44 0 77 -4 77 -10 0 -9 -70 -16 -95 -10 -31 8 -161 13 -310 12
-190 -1 -210 -3 -227 -20 -7 -7 -20 -12 -30 -12 -19 0 -42 35 -33 50 3 6 57
10 118 11 62 0 135 4 162 9 72 11 75 11 75 1z m-435 -32 c5 -6 3 -9 -7 -9 -24
0 -48 11 -48 22 0 10 39 1 55 -13z m855 -80 c0 -24 -23 -21 -28 4 -2 10 3 17
12 17 10 0 16 -9 16 -21z m-3925 -69 c3 -5 -1 -10 -10 -10 -9 0 -13 5 -10 10
3 6 8 10 10 10 2 0 7 -4 10 -10z"/>
<path d="M1435 3990 c-3 -5 -1 -10 4 -10 6 0 11 5 11 10 0 6 -2 10 -4 10 -3 0
-8 -4 -11 -10z"/>
<path d="M1215 2343 c-12 -11 -15 -25 -11 -47 9 -44 23 -54 36 -25 5 13 15 31
22 40 14 20 4 49 -16 49 -8 0 -22 -7 -31 -17z"/>
<path d="M2327 2349 c7 -7 15 -10 18 -7 3 3 -2 9 -12 12 -14 6 -15 5 -6 -5z"/>
<path d="M2305 1979 c-27 -4 -51 -13 -53 -18 -2 -6 -19 -20 -37 -31 -19 -11
-35 -31 -37 -43 -2 -12 -10 -22 -18 -23 -8 0 -23 -4 -33 -8 -26 -12 -34 2 -11
18 10 8 17 16 14 18 -86 57 -177 46 -136 -17 9 -14 20 -25 24 -26 4 0 19 -2
35 -4 29 -4 37 9 11 19 -9 4 -14 9 -11 13 12 11 38 -20 32 -38 -4 -11 -2 -19
4 -19 6 0 11 5 11 11 0 7 11 0 25 -15 13 -14 31 -26 40 -26 8 0 15 -4 15 -10
0 -29 87 2 92 33 2 11 10 21 19 23 24 3 88 35 95 46 4 6 9 32 11 59 5 55 7 55
-92 38z"/>
<path d="M2560 1951 c0 -12 47 -51 89 -73 22 -12 31 -24 31 -43 0 -14 5 -25
10 -25 19 0 10 43 -16 77 -14 18 -43 42 -64 53 -44 23 -50 24 -50 11z"/>
<path d="M1772 1813 c-7 -2 -17 -14 -23 -25 -11 -20 -10 -20 20 1 39 28 41 39
3 24z"/>
<path d="M2591 1803 c-13 -9 -31 -18 -40 -19 -9 -1 -67 -7 -130 -13 -69 -6
-120 -16 -130 -24 -9 -8 -22 -12 -30 -9 -7 2 -17 -2 -22 -9 -14 -22 -11 -27
16 -21 14 2 32 -1 40 -8 13 -10 19 -10 33 4 21 18 48 21 57 5 5 -7 14 -4 27 8
19 17 20 17 35 -2 11 -14 17 -16 20 -7 7 19 23 14 23 -8 0 -11 -8 -24 -17 -27
-10 -4 -27 -16 -38 -27 -11 -12 -31 -29 -45 -39 -14 -10 -4 -6 21 8 25 14 51
25 58 25 16 0 84 48 146 103 46 41 48 45 33 61 -20 20 -26 19 -57 -1z"/>
<path d="M2120 1711 c0 -3 -35 -7 -77 -7 -161 -3 -273 -9 -273 -16 0 -7 142
-88 155 -88 4 0 5 14 3 30 -6 39 8 49 79 53 18 2 35 6 39 9 4 4 15 3 26 -3 13
-7 29 -6 53 2 26 10 40 10 59 1 14 -6 28 -7 31 -3 3 5 -3 12 -13 16 -21 10
-82 14 -82 6z"/>
<path d="M2497 1636 c-4 -10 -1 -13 9 -9 15 6 19 23 5 23 -5 0 -11 -7 -14 -14z"/>
<path d="M2465 1598 c-23 -13 -35 -28 -35 -45 0 -21 21 -15 27 7 3 11 9 20 13
20 4 0 10 7 14 15 6 18 7 18 -19 3z"/>
<path d="M2338 1593 c7 -3 16 -2 19 1 4 3 -2 6 -13 5 -11 0 -14 -3 -6 -6z"/>
<path d="M1584 1134 c-8 -32 1 -103 15 -117 8 -8 11 11 11 66 0 76 -13 102
-26 51z"/>
</g>
</svg>
